<svg xmlns="http://www.w3.org/2000/svg" viewBox="0 0 687 340.5"><g id="Layer_2" data-name="Layer 2"><g id="Layer_1-2" data-name="Layer 1"><rect y="231.5" width="687" height="102" style="fill:#ab7a5f"/><text transform="translate(24.88 311.05)" style="font-size:80.03510284423828px;font-family:AvenirNext-UltraLight, Avenir Next;font-weight:100;letter-spacing:0.30000264051923475em">FURNISHED</text><path d="M41,209.5C90,83.48,210.45.3,343.47.5,474.26.7,596.39,89.93,646.5,213" style="fill:none;stroke:#000;stroke-miterlimit:10"/><rect x="213.4" y="165.4" width="256.78" height="28.81"/><rect x="213.4" y="194.21" width="7.82" height="15.29"/><rect x="462.35" y="194.21" width="7.82" height="15.29"/><path d="M262.83,124.5H420.38a39.12,39.12,0,0,1,39.12,39.12v0a0,0,0,0,1,0,0H223.71a0,0,0,0,1,0,0v0a39.12,39.12,0,0,1,39.12-39.12Z"/><rect x="249.32" y="144.42" width="49.79" height="20.98" rx="1.97" style="fill:#fff"/><rect x="385.89" y="144.42" width="49.79" height="20.98" rx="1.97" style="fill:#fff"/><rect x="341" y="0.5" width="4" height="22"/><polygon points="342.94 7.56 301.19 28.5 381.19 28.5 342.94 7.56"/></g></g></svg>